<svg width="98" height="115" viewBox="0 0 98 115" fill="none" xmlns="http://www.w3.org/2000/svg">
<g clip-path="url(#clip0_1757_1380)">
<path d="M4.41048 96.1575C9.73539 73.4517 10.9226 50.089 7.96042 26.9682C6.71564 27.3025 5.45933 27.6367 4.21454 27.971C8.31772 36.696 7.2804 48.6943 15.1871 55.3908C21.2036 60.4967 29.6059 58.2838 35.3342 53.9155C50.8363 42.1016 50.4445 18.8771 55.2968 1.79592C54.052 1.95729 52.7957 2.10712 51.5509 2.26848C51.0438 13.7827 50.7787 25.3085 50.7787 36.8458C50.7787 45.1214 50.0756 55.7481 56.8413 61.8683C69.3583 73.1636 89.3786 59.4018 97.8039 49.6049C96.6398 49.5818 95.4757 49.5473 94.3116 49.5242C79.4203 67.2624 76.4582 90.9825 74.0032 113.193C75.2019 112.87 76.4121 112.547 77.6107 112.224C66.1772 93.0686 38.0081 95.8579 18.9445 94.809C17.5153 94.7283 14.9681 96.7915 17.4922 96.9298C36.0718 97.9556 63.0652 95.1202 74.1415 113.688C74.7063 114.633 77.6453 113.746 77.7491 112.72C80.1695 90.7058 83.0394 67.1817 97.7924 49.5934C98.8528 48.337 95.0838 48.6021 94.3001 49.5127C88.8023 55.9095 81.1953 61.8453 72.6662 63.286C63.9642 64.7613 57.4406 59.8513 55.4928 51.4836C53.7178 43.8881 54.467 35.4743 54.5477 27.7635C54.6399 19.1077 54.8934 10.4518 55.2738 1.80745C55.3429 0.216892 51.8506 1.12743 51.5279 2.28001C47.5515 16.2723 47.2173 32.0281 39.6333 44.7756C34.6426 53.1548 23.3243 61.6263 15.8902 50.8612C11.0378 43.8305 11.5104 34.5983 7.93737 26.9913C7.36108 25.758 4.0186 26.6109 4.19149 27.994C7.15362 50.9304 5.94341 74.0856 0.664601 96.6301C0.341879 98.0132 4.11081 97.4369 4.41048 96.1575Z" fill="#CBCCCA"/>
</g>
<defs>
<clipPath id="clip0_1757_1380">
<rect width="97.3583" height="113.137" fill="white" transform="translate(0.641602 0.931396)"/>
</clipPath>
</defs>
</svg>
