<svg width="32" height="32" viewBox="0 0 32 32" fill="none" xmlns="http://www.w3.org/2000/svg">
<g clip-path="url(#clip0_1658_2566)">
<path d="M30.6667 14.6663H1.33332C0.596938 14.6663 -1.52588e-05 15.2632 -1.52588e-05 15.9996C-1.52588e-05 16.736 0.596938 17.3329 1.33332 17.3329H30.6667C31.403 17.3329 32 16.736 32 15.9996C32 15.2632 31.403 14.6663 30.6667 14.6663Z" fill="black"/>
<path d="M30.6667 5.33374H1.33332C0.596938 5.33374 -1.52588e-05 5.93069 -1.52588e-05 6.66707C-1.52588e-05 7.40345 0.596938 8.0004 1.33332 8.0004H30.6667C31.403 8.0004 32 7.40345 32 6.66707C32 5.93069 31.403 5.33374 30.6667 5.33374Z" fill="black"/>
<path d="M30.6667 24H1.33332C0.596938 24 -1.52588e-05 24.597 -1.52588e-05 25.3333C-1.52588e-05 26.0697 0.596938 26.6667 1.33332 26.6667H30.6667C31.403 26.6667 32 26.0697 32 25.3333C32 24.597 31.403 24 30.6667 24Z" fill="black"/>
</g>
<defs>
<clipPath id="clip0_1658_2566">
<rect width="32" height="32" fill="white"/>
</clipPath>
</defs>
</svg>
