<svg width="371" height="493" viewBox="0 0 371 493" fill="none" xmlns="http://www.w3.org/2000/svg">
<g opacity="0.5">
<mask id="path-1-outside-1_1998_222" maskUnits="userSpaceOnUse" x="-2" y="-2" width="375" height="497" fill="black">
<rect fill="white" x="-2" y="-2" width="375" height="497"/>
<path d="M118.66 186.99H7.13022C7.13022 74.0654 67.0776 0.176757 197.428 0.176757C301.291 0.176757 370.997 54.5476 370.997 146.56C370.997 273.425 228.796 334.767 166.758 396.108V397.502H370.997V493H0.159596C0.159596 412.838 41.9834 363.346 84.5042 327.796C170.94 255.999 252.496 218.357 252.496 154.925C252.496 117.98 231.584 95.6743 193.943 95.6743C148.634 95.6743 118.66 120.769 118.66 186.99Z"/>
</mask>
<path d="M118.66 186.99V188.99H120.66V186.99H118.66ZM7.13022 186.99H5.13022V188.99H7.13022V186.99ZM166.758 396.108L165.351 394.686L164.758 395.273V396.108H166.758ZM166.758 397.502H164.758V399.502H166.758V397.502ZM370.997 397.502H372.997V395.502H370.997V397.502ZM370.997 493V495H372.997V493H370.997ZM0.159595 493H-1.8404V495H0.159595V493ZM84.5042 327.796L83.2262 326.258L83.2213 326.262L84.5042 327.796ZM118.66 184.99H7.13022V188.99H118.66V184.99ZM9.13022 186.99C9.13022 130.863 24.0255 84.7242 54.8406 52.6216C85.6412 20.534 132.629 2.17676 197.428 2.17676V-1.82324C131.877 -1.82324 83.7156 16.7638 51.9549 49.8516C20.2087 82.9243 5.13022 130.192 5.13022 186.99H9.13022ZM197.428 2.17676C249.031 2.17676 291.929 15.6841 321.888 40.4063C351.802 65.0917 368.997 101.104 368.997 146.56H372.997C372.997 100.004 355.339 62.8242 324.434 37.3211C293.574 11.8549 249.688 -1.82324 197.428 -1.82324V2.17676ZM368.997 146.56C368.997 209.149 333.95 255.7 290.806 294.417C269.236 313.774 245.723 331.1 223.651 347.472C201.624 363.81 180.981 379.232 165.351 394.686L168.164 397.53C183.553 382.314 203.95 367.065 226.034 350.685C248.072 334.338 271.743 316.899 293.477 297.394C336.943 258.389 372.997 210.837 372.997 146.56H368.997ZM164.758 396.108V397.502H168.758V396.108H164.758ZM166.758 399.502H370.997V395.502H166.758V399.502ZM368.997 397.502V493H372.997V397.502H368.997ZM370.997 491H0.159595V495H370.997V491ZM2.1596 493C2.1596 413.679 43.4872 364.696 85.787 329.331L83.2213 326.262C40.4795 361.997 -1.8404 411.997 -1.8404 493H2.1596ZM85.7821 329.335C107.342 311.426 128.604 295.642 148.406 281.025C168.188 266.422 186.546 252.961 202.203 239.752C233.456 213.388 254.496 187.599 254.496 154.925H250.496C250.496 185.682 230.758 210.431 199.624 236.695C184.088 249.801 165.85 263.176 146.03 277.807C126.23 292.423 104.884 308.268 83.2262 326.258L85.7821 329.335ZM254.496 154.925C254.496 136.083 249.158 120.714 238.768 110.05C228.369 99.3773 213.161 93.6743 193.943 93.6743V97.6743C212.367 97.6743 226.435 103.124 235.903 112.841C245.378 122.566 250.496 136.822 250.496 154.925H254.496ZM193.943 93.6743C170.925 93.6743 151.48 100.058 137.827 115.158C124.209 130.219 116.66 153.617 116.66 186.99H120.66C120.66 154.141 128.099 131.881 140.794 117.84C153.455 103.838 171.652 97.6743 193.943 97.6743V93.6743Z" fill="#1E1E1E" fill-opacity="0.54" mask="url(#path-1-outside-1_1998_222)"/>
</g>
</svg>
