<svg width="393" height="505" viewBox="0 0 393 505" fill="none" xmlns="http://www.w3.org/2000/svg">
<g opacity="0.5">
<mask id="path-1-outside-1_2012_3281" maskUnits="userSpaceOnUse" x="-2" y="-2" width="397" height="509" fill="black">
<rect fill="white" x="-2" y="-2" width="397" height="509"/>
<path d="M126.428 159.107H14.8982C14.8982 67.0948 83.2104 0.176757 206.59 0.176757C296.512 0.176757 378.765 47.577 378.765 132.619C378.765 184.898 348.094 217.66 309.059 237.875V239.269C368.309 258.09 392.706 298.52 392.706 357.77C392.706 452.57 315.332 504.153 208.682 504.153C72.7544 504.153 0.956981 438.629 0.956981 322.917H112.487C112.487 378.682 138.278 408.655 200.317 408.655C250.505 408.655 274.206 387.046 274.206 350.799C274.206 304.096 241.444 286.669 185.679 286.669H161.281V205.113H182.89C234.473 205.113 260.264 188.384 260.264 152.136C260.264 111.01 236.564 95.6743 197.529 95.6743C160.584 95.6743 126.428 113.101 126.428 159.107Z"/>
</mask>
<path d="M126.428 159.107V161.107H128.428V159.107H126.428ZM14.8982 159.107H12.8982V161.107H14.8982V159.107ZM309.059 237.875L308.139 236.099L307.059 236.659V237.875H309.059ZM309.059 239.269H307.059V240.732L308.453 241.175L309.059 239.269ZM0.956981 322.917V320.917H-1.04302V322.917H0.956981ZM112.487 322.917H114.487V320.917H112.487V322.917ZM161.281 286.669H159.281V288.669H161.281V286.669ZM161.281 205.113V203.113H159.281V205.113H161.281ZM126.428 157.107H14.8982V161.107H126.428V157.107ZM16.8982 159.107C16.8982 113.625 33.7654 74.4634 65.7884 46.6472C97.8366 18.8091 145.251 2.17676 206.59 2.17676V-1.82324C144.55 -1.82324 96.1181 15.0035 63.1653 43.6274C30.1871 72.2733 12.8982 112.577 12.8982 159.107H16.8982ZM206.59 2.17676C251.229 2.17676 293.846 13.9468 325.244 36.1403C356.591 58.2983 376.765 90.8333 376.765 132.619H380.765C380.765 89.3623 359.812 55.6764 327.553 32.8739C295.343 10.1069 251.872 -1.82324 206.59 -1.82324V2.17676ZM376.765 132.619C376.765 183.912 346.754 216.102 308.139 236.099L309.978 239.651C349.434 219.219 380.765 185.885 380.765 132.619H376.765ZM307.059 237.875V239.269H311.059V237.875H307.059ZM308.453 241.175C337.748 250.481 358.246 265.064 371.447 284.483C384.662 303.921 390.706 328.41 390.706 357.77H394.706C394.706 327.879 388.552 302.529 374.755 282.234C360.946 261.921 339.619 246.878 309.664 237.363L308.453 241.175ZM390.706 357.77C390.706 404.558 371.644 440.558 339.48 464.917C307.252 489.325 261.714 502.153 208.682 502.153V506.153C262.3 506.153 308.774 493.19 341.895 468.106C375.081 442.973 394.706 405.782 394.706 357.77H390.706ZM208.682 502.153C141.01 502.153 89.6214 485.841 55.1702 455.428C20.7588 425.049 2.95698 380.346 2.95698 322.917H-1.04302C-1.04302 381.2 17.0539 427.115 52.523 458.426C87.9524 489.703 140.426 506.153 208.682 506.153V502.153ZM0.956981 324.917H112.487V320.917H0.956981V324.917ZM110.487 322.917C110.487 351.07 116.995 373.113 131.71 388.099C146.433 403.092 169.008 410.655 200.317 410.655V406.655C169.588 406.655 148.248 399.232 134.565 385.297C120.875 371.355 114.487 350.529 114.487 322.917H110.487ZM200.317 410.655C225.656 410.655 244.652 405.206 257.345 394.871C270.107 384.479 276.206 369.387 276.206 350.799H272.206C272.206 368.458 266.454 382.295 254.819 391.769C243.114 401.3 225.166 406.655 200.317 406.655V410.655ZM276.206 350.799C276.206 326.911 267.783 310.194 251.97 299.561C236.314 289.034 213.697 284.669 185.679 284.669V288.669C213.425 288.669 235.072 293.019 249.738 302.88C264.247 312.636 272.206 327.984 272.206 350.799H276.206ZM185.679 284.669H161.281V288.669H185.679V284.669ZM163.281 286.669V205.113H159.281V286.669H163.281ZM161.281 207.113H182.89V203.113H161.281V207.113ZM182.89 207.113C208.829 207.113 228.654 202.92 242.04 193.875C255.578 184.728 262.264 170.806 262.264 152.136H258.264C258.264 169.714 252.055 182.281 239.801 190.56C227.396 198.942 208.534 203.113 182.89 203.113V207.113ZM262.264 152.136C262.264 131.183 256.212 116.413 244.813 106.944C233.489 97.5384 217.251 93.6743 197.529 93.6743V97.6743C216.842 97.6743 231.972 101.478 242.257 110.021C252.467 118.502 258.264 131.963 258.264 152.136H262.264ZM197.529 93.6743C178.781 93.6743 160.524 98.0907 146.906 108.552C133.207 119.076 124.428 135.548 124.428 159.107H128.428C128.428 136.66 136.728 121.415 149.343 111.724C162.039 101.971 179.332 97.6743 197.529 97.6743V93.6743Z" fill="#1E1E1E" fill-opacity="0.54" mask="url(#path-1-outside-1_2012_3281)"/>
</g>
</svg>
