<svg width="222" height="482" viewBox="0 0 222 482" fill="none" xmlns="http://www.w3.org/2000/svg">
<mask id="path-1-outside-1_1952_1325" maskUnits="userSpaceOnUse" x="-2" y="-2" width="226" height="486" fill="black">
<rect fill="white" x="-2" y="-2" width="226" height="486"/>
<path d="M123.654 0.329739H221.243V482H102.743V156.472C75.5571 184.354 35.1274 184.354 0.971375 184.354V100.707C92.2866 100.707 123.654 52.6094 123.654 0.329739Z"/>
</mask>
<path d="M123.654 0.329739V-1.67026H121.654V0.329739H123.654ZM221.243 0.329739H223.243V-1.67026H221.243V0.329739ZM221.243 482V484H223.243V482H221.243ZM102.743 482H100.743V484H102.743V482ZM102.743 156.472H104.743V151.556L101.311 155.076L102.743 156.472ZM0.971375 184.354H-1.02863V186.354H0.971375V184.354ZM0.971375 100.707V98.7067H-1.02863V100.707H0.971375ZM123.654 2.32974H221.243V-1.67026H123.654V2.32974ZM219.243 0.329739V482H223.243V0.329739H219.243ZM221.243 480H102.743V484H221.243V480ZM104.743 482V156.472H100.743V482H104.743ZM101.311 155.076C74.8128 182.253 35.3228 182.354 0.971375 182.354V186.354C34.9321 186.354 76.3013 186.456 104.175 157.868L101.311 155.076ZM2.97137 184.354V100.707H-1.02863V184.354H2.97137ZM0.971375 102.707C46.9679 102.707 78.2035 90.5891 97.944 71.5632C117.688 52.5339 125.654 26.8624 125.654 0.329739H121.654C121.654 26.0768 113.937 50.5937 95.1682 68.6831C76.396 86.7758 46.29 98.7067 0.971375 98.7067V102.707Z" fill="#1E1E1E" fill-opacity="0.54" mask="url(#path-1-outside-1_1952_1325)"/>
</svg>
