<svg width="409" height="482" viewBox="0 0 409 482" fill="none" xmlns="http://www.w3.org/2000/svg">
<mask id="path-1-outside-1_2101_408" maskUnits="userSpaceOnUse" x="-2" y="-2" width="413" height="486" fill="black">
<rect fill="white" x="-2" y="-2" width="413" height="486"/>
<path d="M337.668 482H219.168V380.229H0.986993V263.819L219.168 0.329739H337.668V284.731H408.769V380.229H337.668V482ZM219.168 129.286L88.1198 284.731H219.168V129.286Z"/>
</mask>
<path d="M337.668 482V484H339.668V482H337.668ZM219.168 482H217.168V484H219.168V482ZM219.168 380.229H221.168V378.229H219.168V380.229ZM0.986994 380.229H-1.01301V382.229H0.986994V380.229ZM0.986994 263.819L-0.55345 262.544L-1.01301 263.099V263.819H0.986994ZM219.168 0.329742V-1.67026H218.227L217.627 -0.945801L219.168 0.329742ZM337.668 0.329742H339.668V-1.67026H337.668V0.329742ZM337.668 284.731H335.668V286.731H337.668V284.731ZM408.769 284.731H410.769V282.731H408.769V284.731ZM408.769 380.229V382.229H410.769V380.229H408.769ZM337.668 380.229V378.229H335.668V380.229H337.668ZM219.168 129.286H221.168V123.811L217.638 127.997L219.168 129.286ZM88.1198 284.731L86.5907 283.442L83.8178 286.731H88.1198V284.731ZM219.168 284.731V286.731H221.168V284.731H219.168ZM337.668 480H219.168V484H337.668V480ZM221.168 482V380.229H217.168V482H221.168ZM219.168 378.229H0.986994V382.229H219.168V378.229ZM2.98699 380.229V263.819H-1.01301V380.229H2.98699ZM2.52744 265.095L220.708 1.60529L217.627 -0.945801L-0.55345 262.544L2.52744 265.095ZM219.168 2.32974H337.668V-1.67026H219.168V2.32974ZM335.668 0.329742V284.731H339.668V0.329742H335.668ZM337.668 286.731H408.769V282.731H337.668V286.731ZM406.769 284.731V380.229H410.769V284.731H406.769ZM408.769 378.229H337.668V382.229H408.769V378.229ZM335.668 380.229V482H339.668V380.229H335.668ZM217.638 127.997L86.5907 283.442L89.6489 286.02L220.697 130.575L217.638 127.997ZM88.1198 286.731H219.168V282.731H88.1198V286.731ZM221.168 284.731V129.286H217.168V284.731H221.168Z" fill="#1E1E1E" fill-opacity="0.54" mask="url(#path-1-outside-1_2101_408)"/>
</svg>
